<svg width="200" height="200" viewBox="0 0 200 200" fill="none" xmlns="http://www.w3.org/2000/svg">
<g id="email">
<g id="Vector" filter="url(#filter0_d_28_7)">
<path d="M100.013 0C44.7858 0 0.0259217 41.5625 0.0259217 92.8571C0.0259217 114.107 7.79835 133.571 20.6873 149.241C14.8677 166.83 2.75994 181.741 2.56466 181.92C-0.0131357 185.045 -0.71617 189.598 0.768013 193.527C2.2522 197.455 5.65019 200 9.39971 200C33.42 200 52.3629 188.527 63.7286 179.33C75.0162 183.393 87.2021 185.714 100.013 185.714C155.24 185.714 200 144.152 200 92.8571C200 41.5625 155.24 0 100.013 0ZM100.013 164.286C89.5846 164.286 79.2735 162.455 69.3919 158.884L60.5259 155.67L52.9097 161.83C47.3245 166.339 39.6692 171.384 30.4517 174.777C33.3029 169.375 36.0759 163.304 38.2241 156.83L42.3642 144.286L34.3184 134.554C27.249 125.937 18.7735 111.696 18.7735 92.8571C18.7735 53.4821 55.2141 21.4286 100.013 21.4286C144.812 21.4286 181.252 53.4821 181.252 92.8571C181.252 132.232 144.812 164.286 100.013 164.286Z" fill="#FFD700"/>
</g>
<path id="rishavrajcrj@gmail.com" d="M30.7739 96.8097L30.5359 89.8363L32.2257 90.0386V90.7169C32.3764 90.5265 32.5272 90.3718 32.6779 90.2528C32.8366 90.1338 33.0349 90.0465 33.2729 89.991C33.5109 89.9354 33.8243 89.9037 34.213 89.8958L34.4867 91.3476C34.2249 91.3 33.9869 91.2762 33.7727 91.2762C32.9714 91.2762 32.4558 91.5975 32.2257 92.2401V96.6431L30.7739 96.8097ZM37.5078 88.0989C37.5078 88.3765 37.4086 88.6145 37.2103 88.8129C37.012 89.0112 36.774 89.1104 36.4963 89.1104C36.2186 89.1104 35.9806 89.0112 35.7823 88.8129C35.584 88.6145 35.4848 88.3765 35.4848 88.0989C35.4848 87.8212 35.584 87.5832 35.7823 87.3849C35.9806 87.1865 36.2186 87.0874 36.4963 87.0874C36.774 87.0874 37.012 87.1865 37.2103 87.3849C37.4086 87.5832 37.5078 87.8212 37.5078 88.0989ZM35.6514 96.8097V89.8363L37.3531 90.0386L37.1151 96.6431L35.6514 96.8097ZM43.6606 91.7879C43.4305 91.5657 43.1092 91.3833 42.6967 91.2405C42.2841 91.0977 41.8756 91.0263 41.471 91.0263C41.0743 91.0263 40.7927 91.0937 40.6261 91.2286C40.4595 91.3634 40.3762 91.5221 40.3762 91.7046C40.3762 91.8791 40.4753 92.0338 40.6737 92.1687C40.8799 92.3035 41.2409 92.4225 41.7566 92.5257C42.653 92.7002 43.3075 92.9739 43.7201 93.3468C44.1405 93.7117 44.3508 94.1956 44.3508 94.7986C44.3508 95.4332 44.1088 95.9211 43.6249 96.2623C43.1489 96.6034 42.4428 96.774 41.5067 96.774C41.11 96.774 40.7133 96.6986 40.3167 96.5479C39.9279 96.3892 39.5789 96.1988 39.2695 95.9767C38.968 95.7466 38.7379 95.5324 38.5793 95.3341L39.1624 94.5606C39.3131 94.7192 39.5273 94.8779 39.805 95.0366C40.0906 95.1952 40.392 95.3261 40.7094 95.4293C41.0346 95.5324 41.3202 95.584 41.5662 95.584C41.9708 95.584 42.2643 95.5205 42.4468 95.3936C42.6372 95.2666 42.7324 95.0881 42.7324 94.8581C42.7324 94.6042 42.5975 94.3979 42.3278 94.2393C42.066 94.0806 41.6534 93.9418 41.0902 93.8228C40.273 93.6562 39.686 93.3983 39.329 93.0493C38.972 92.7002 38.7935 92.2837 38.7935 91.7998C38.7935 91.2524 39.0275 90.8002 39.4956 90.4432C39.9636 90.0782 40.63 89.8958 41.4948 89.8958C41.8994 89.8958 42.2802 89.9513 42.6372 90.0624C43.0021 90.1655 43.3155 90.3004 43.5773 90.467C43.847 90.6336 44.0414 90.8002 44.1604 90.9668L43.6606 91.7879ZM50.0939 96.8097V92.2401C50.0939 91.8434 49.9709 91.5419 49.725 91.3357C49.487 91.1215 49.1974 91.0144 48.8563 91.0144C48.5152 91.0144 48.2018 91.1056 47.9162 91.2881C47.6385 91.4705 47.4442 91.7363 47.3331 92.0854V96.6431L45.8813 96.7978L45.6433 87.3611L47.3331 87.1231V90.7169C47.4918 90.4789 47.7298 90.2845 48.0471 90.1338C48.3724 89.9751 48.7968 89.8958 49.3204 89.8958C49.7805 89.8958 50.1891 89.991 50.5461 90.1814C50.911 90.3638 51.2006 90.6177 51.4148 90.943C51.629 91.2682 51.7361 91.6451 51.7361 92.0735V92.2044L51.4981 96.6431L50.0939 96.8097ZM58.2971 96.7621C58.0988 96.6034 57.9441 96.4527 57.833 96.3099C57.7299 96.1591 57.6426 95.9806 57.5712 95.7744C57.4284 96.0203 57.2261 96.2186 56.9643 96.3694C56.7025 96.5122 56.409 96.6153 56.0837 96.6788C55.7664 96.7422 55.4411 96.774 55.1079 96.774C54.4336 96.774 53.9258 96.6193 53.5847 96.3099C53.2436 96.0005 53.0651 95.5681 53.0492 95.0128V94.9652C53.0492 94.3305 53.2515 93.8307 53.6561 93.4658C54.0607 93.1008 54.624 92.839 55.3459 92.6804C55.8378 92.5693 56.2503 92.4503 56.5835 92.3234C56.9246 92.1885 57.0952 92.0378 57.0952 91.8712C57.0952 91.3396 56.6787 91.0739 55.8457 91.0739C55.4252 91.0739 55.0167 91.1572 54.62 91.3238C54.2233 91.4824 53.8981 91.6728 53.6442 91.895L53.1682 91.0382C53.4459 90.6732 53.8267 90.3916 54.3106 90.1933C54.8025 89.9949 55.3578 89.8958 55.9766 89.8958C56.8969 89.8958 57.5871 90.0663 58.0472 90.4075C58.5153 90.7407 58.7493 91.2682 58.7493 91.9902V94.6915C58.7493 95.0009 58.8088 95.3063 58.9278 95.6078C59.0468 95.9092 59.2174 96.171 59.4395 96.3932L58.2971 96.7621ZM54.6914 94.8462C54.6993 95.0604 54.7628 95.2428 54.8818 95.3936C55.0008 95.5443 55.1793 95.6197 55.4173 95.6197C55.7664 95.6197 56.1075 95.5205 56.4407 95.3222C56.7739 95.1238 57.004 94.8739 57.1309 94.5725C57.1706 94.4852 57.1944 94.3781 57.2023 94.2512C57.2182 94.1163 57.2261 93.9775 57.2261 93.8347C57.2261 93.6284 57.2182 93.442 57.2023 93.2754C57.1864 93.1088 57.1785 93.0255 57.1785 93.0255C57.004 93.1603 56.7779 93.2754 56.5002 93.3706C56.2305 93.4658 55.9449 93.557 55.6434 93.6443C55.3499 93.7236 55.1158 93.8545 54.9413 94.037C54.7747 94.2194 54.6914 94.4614 54.6914 94.7629V94.8462ZM62.5521 96.7978L59.708 90.1695L61.5168 89.8482L63.2304 94.9176L65.0987 89.8363L66.3006 90.2171L63.9444 96.6431L62.5521 96.7978ZM67.4036 96.8097L67.1656 89.8363L68.8554 90.0386V90.7169C69.0061 90.5265 69.1568 90.3718 69.3076 90.2528C69.4662 90.1338 69.6646 90.0465 69.9026 89.991C70.1406 89.9354 70.4539 89.9037 70.8427 89.8958L71.1164 91.3476C70.8546 91.3 70.6166 91.2762 70.4024 91.2762C69.6011 91.2762 69.0854 91.5975 68.8554 92.2401V96.6431L67.4036 96.8097ZM77.0768 96.7621C76.8785 96.6034 76.7238 96.4527 76.6127 96.3099C76.5096 96.1591 76.4223 95.9806 76.3509 95.7744C76.2081 96.0203 76.0058 96.2186 75.744 96.3694C75.4822 96.5122 75.1887 96.6153 74.8634 96.6788C74.5461 96.7422 74.2208 96.774 73.8876 96.774C73.2133 96.774 72.7055 96.6193 72.3644 96.3099C72.0233 96.0005 71.8448 95.5681 71.8289 95.0128V94.9652C71.8289 94.3305 72.0312 93.8307 72.4358 93.4658C72.8404 93.1008 73.4037 92.839 74.1256 92.6804C74.6175 92.5693 75.03 92.4503 75.3632 92.3234C75.7043 92.1885 75.8749 92.0378 75.8749 91.8712C75.8749 91.3396 75.4584 91.0739 74.6254 91.0739C74.2049 91.0739 73.7964 91.1572 73.3997 91.3238C73.003 91.4824 72.6778 91.6728 72.4239 91.895L71.9479 91.0382C72.2256 90.6732 72.6064 90.3916 73.0903 90.1933C73.5822 89.9949 74.1375 89.8958 74.7563 89.8958C75.6766 89.8958 76.3668 90.0663 76.8269 90.4075C77.295 90.7407 77.529 91.2682 77.529 91.9902V94.6915C77.529 95.0009 77.5885 95.3063 77.7075 95.6078C77.8265 95.9092 77.9971 96.171 78.2192 96.3932L77.0768 96.7621ZM73.4711 94.8462C73.479 95.0604 73.5425 95.2428 73.6615 95.3936C73.7805 95.5443 73.959 95.6197 74.197 95.6197C74.5461 95.6197 74.8872 95.5205 75.2204 95.3222C75.5536 95.1238 75.7837 94.8739 75.9106 94.5725C75.9503 94.4852 75.9741 94.3781 75.982 94.2512C75.9979 94.1163 76.0058 93.9775 76.0058 93.8347C76.0058 93.6284 75.9979 93.442 75.982 93.2754C75.9661 93.1088 75.9582 93.0255 75.9582 93.0255C75.7837 93.1603 75.5576 93.2754 75.2799 93.3706C75.0102 93.4658 74.7246 93.557 74.4231 93.6443C74.1296 93.7236 73.8955 93.8545 73.721 94.037C73.5544 94.2194 73.4711 94.4614 73.4711 94.7629V94.8462ZM81.4032 88.0989C81.4032 88.3765 81.304 88.6145 81.1057 88.8129C80.9074 89.0112 80.6694 89.1104 80.3917 89.1104C80.114 89.1104 79.876 89.0112 79.6777 88.8129C79.4794 88.6145 79.3802 88.3765 79.3802 88.0989C79.3802 87.8212 79.4794 87.5832 79.6777 87.3849C79.876 87.1865 80.114 87.0874 80.3917 87.0874C80.6694 87.0874 80.9074 87.1865 81.1057 87.3849C81.304 87.5832 81.4032 87.8212 81.4032 88.0989ZM78.0593 98.0235C78.5829 97.96 78.9994 97.7775 79.3088 97.4761C79.6261 97.1746 79.7848 96.7938 79.7848 96.3337V96.2623L79.5468 89.8363L81.2366 90.0386V96.6669C81.2366 97.4364 80.9748 98.0116 80.4512 98.3924C79.9355 98.7732 79.2533 98.9834 78.4044 99.0231L78.0593 98.0235ZM88.576 95.6911C88.3539 96.0084 88.0167 96.2702 87.5645 96.4765C87.1123 96.6748 86.6006 96.774 86.0294 96.774C85.4185 96.774 84.8513 96.647 84.3277 96.3932C83.8041 96.1314 83.3797 95.7466 83.0544 95.2389C82.7371 94.7311 82.5784 94.0965 82.5784 93.3349C82.5784 92.6129 82.7291 91.9981 83.0306 91.4904C83.3321 90.9747 83.7406 90.582 84.2563 90.3123C84.7799 90.0346 85.3709 89.8958 86.0294 89.8958C86.5609 89.8958 87.0449 89.987 87.4812 90.1695C87.9255 90.344 88.2706 90.586 88.5165 90.8954L88.1119 91.7998C87.9136 91.5935 87.6359 91.4229 87.2789 91.2881C86.9219 91.1532 86.5808 91.0858 86.2555 91.0858C85.8826 91.0858 85.5415 91.173 85.2321 91.3476C84.9227 91.5221 84.6768 91.7799 84.4943 92.1211C84.3198 92.4543 84.2325 92.8589 84.2325 93.3349C84.2325 94.0489 84.4269 94.6002 84.8156 94.989C85.2043 95.3777 85.6962 95.5721 86.2912 95.5721C86.6799 95.5721 87.0409 95.5086 87.3741 95.3817C87.7152 95.2547 87.985 95.0802 88.1833 94.8581L88.576 95.6911ZM90.1228 96.8097L89.8848 89.8363L91.5746 90.0386V90.7169C91.7254 90.5265 91.8761 90.3718 92.0268 90.2528C92.1855 90.1338 92.3838 90.0465 92.6218 89.991C92.8598 89.9354 93.1732 89.9037 93.5619 89.8958L93.8356 91.3476C93.5738 91.3 93.3358 91.2762 93.1216 91.2762C92.3204 91.2762 91.8047 91.5975 91.5746 92.2401V96.6431L90.1228 96.8097ZM96.9638 88.0989C96.9638 88.3765 96.8647 88.6145 96.6663 88.8129C96.468 89.0112 96.23 89.1104 95.9523 89.1104C95.6747 89.1104 95.4367 89.0112 95.2383 88.8129C95.04 88.6145 94.9408 88.3765 94.9408 88.0989C94.9408 87.8212 95.04 87.5832 95.2383 87.3849C95.4367 87.1865 95.6747 87.0874 95.9523 87.0874C96.23 87.0874 96.468 87.1865 96.6663 87.3849C96.8647 87.5832 96.9638 87.8212 96.9638 88.0989ZM93.6199 98.0235C94.1435 97.96 94.56 97.7775 94.8694 97.4761C95.1868 97.1746 95.3454 96.7938 95.3454 96.3337V96.2623L95.1074 89.8363L96.7972 90.0386V96.6669C96.7972 97.4364 96.5354 98.0116 96.0118 98.3924C95.4962 98.7732 94.8139 98.9834 93.965 99.0231L93.6199 98.0235ZM107.338 95.2627C106.838 95.7466 106.239 96.1314 105.541 96.417C104.851 96.7026 103.994 96.8454 102.97 96.8454C102.003 96.8454 101.154 96.651 100.424 96.2623C99.7019 95.8656 99.1426 95.3063 98.7459 94.5844C98.3493 93.8545 98.1509 92.9937 98.1509 92.0021C98.1509 91.2801 98.2739 90.6217 98.5198 90.0267C98.7737 89.4317 99.1228 88.92 99.567 88.4916C100.019 88.0552 100.547 87.722 101.15 87.492C101.761 87.254 102.423 87.135 103.137 87.135C104.145 87.135 104.986 87.3214 105.66 87.6943C106.334 88.0671 106.842 88.5749 107.183 89.2175C107.524 89.8521 107.695 90.5661 107.695 91.3595C107.695 91.7244 107.651 92.1052 107.564 92.5019C107.477 92.8906 107.334 93.2516 107.135 93.5848C106.945 93.918 106.695 94.1877 106.386 94.394C106.076 94.6002 105.7 94.7034 105.255 94.7034C105.017 94.7034 104.787 94.6121 104.565 94.4297C104.351 94.2472 104.216 94.029 104.16 93.7752C104.034 94.037 103.835 94.2631 103.565 94.4535C103.296 94.6359 102.955 94.7272 102.542 94.7272C101.011 94.7272 100.245 93.791 100.245 91.9188C100.245 91.2762 100.345 90.7407 100.543 90.3123C100.749 89.8839 101.023 89.5626 101.364 89.3484C101.705 89.1342 102.074 89.0271 102.471 89.0271C102.828 89.0271 103.113 89.0786 103.327 89.1818C103.542 89.277 103.688 89.3801 103.768 89.4912V89.0033L105.243 89.2175L105.101 92.9303V93.0017C105.101 93.2238 105.148 93.3864 105.243 93.4896C105.339 93.5848 105.45 93.6324 105.577 93.6324C105.703 93.6324 105.838 93.5372 105.981 93.3468C106.132 93.1564 106.259 92.8906 106.362 92.5495C106.465 92.2083 106.517 91.8156 106.517 91.3714C106.517 90.7605 106.402 90.2052 106.172 89.7054C105.941 89.1976 105.577 88.797 105.077 88.5035C104.585 88.202 103.938 88.0513 103.137 88.0513C102.407 88.0513 101.749 88.2179 101.162 88.5511C100.583 88.8843 100.122 89.3484 99.7812 89.9434C99.448 90.5304 99.2814 91.2206 99.2814 92.014C99.2814 92.839 99.4441 93.5411 99.7693 94.1203C100.103 94.6915 100.547 95.1278 101.102 95.4293C101.665 95.7307 102.288 95.8815 102.97 95.8815C103.819 95.8815 104.581 95.7664 105.255 95.5364C105.93 95.2984 106.493 94.9969 106.945 94.632L107.338 95.2627ZM103.78 90.6574C103.716 90.5066 103.609 90.3718 103.458 90.2528C103.316 90.1338 103.105 90.0743 102.828 90.0743C102.621 90.0743 102.423 90.1298 102.233 90.2409C102.05 90.344 101.899 90.5344 101.78 90.8121C101.669 91.0818 101.614 91.4626 101.614 91.9545C101.614 92.6367 101.717 93.1167 101.923 93.3944C102.137 93.672 102.407 93.8109 102.732 93.8109C103.074 93.8109 103.331 93.676 103.506 93.4063C103.688 93.1286 103.78 92.7994 103.78 92.4186V90.6574ZM113.45 95.6435C113.283 95.8577 113.037 96.0322 112.712 96.1671C112.395 96.294 112.05 96.3575 111.677 96.3575C111.114 96.3575 110.61 96.2385 110.165 96.0005C109.721 95.7625 109.372 95.4094 109.118 94.9414C108.864 94.4654 108.737 93.8743 108.737 93.1683C108.737 92.4543 108.864 91.8553 109.118 91.3714C109.372 90.8874 109.713 90.5225 110.142 90.2766C110.578 90.0227 111.066 89.8958 111.605 89.8958C112.105 89.8958 112.506 89.9711 112.807 90.1219C113.117 90.2726 113.331 90.4749 113.45 90.7288V89.872L115.092 90.11L114.854 96.4051C114.83 96.9921 114.707 97.484 114.485 97.8807C114.271 98.2773 113.926 98.5709 113.45 98.7613C112.974 98.9596 112.343 99.0588 111.558 99.0588C111.272 99.0588 110.975 99.0231 110.665 98.9517C110.364 98.8803 110.082 98.7851 109.82 98.6661C109.559 98.5471 109.344 98.4201 109.178 98.2853L109.416 97.3452C109.693 97.488 110.007 97.603 110.356 97.6903C110.713 97.7855 111.098 97.8331 111.51 97.8331C112.216 97.8331 112.716 97.6942 113.01 97.4166C113.303 97.1468 113.45 96.7462 113.45 96.2147V95.6435ZM113.462 92.0259C113.335 91.772 113.148 91.5499 112.902 91.3595C112.657 91.1611 112.359 91.062 112.01 91.062C111.709 91.062 111.423 91.1294 111.153 91.2643C110.891 91.3912 110.677 91.6133 110.511 91.9307C110.344 92.2401 110.261 92.6685 110.261 93.2159C110.261 93.7315 110.34 94.148 110.499 94.4654C110.657 94.7748 110.872 95.0009 111.141 95.1437C111.411 95.2785 111.705 95.346 112.022 95.346C112.292 95.346 112.534 95.2785 112.748 95.1437C112.962 95.0009 113.133 94.8105 113.259 94.5725C113.394 94.3345 113.462 94.0766 113.462 93.799V92.0259ZM124.108 96.7978V92.3591C124.108 91.5578 123.787 91.1572 123.144 91.1572C122.946 91.1572 122.771 91.2246 122.621 91.3595C122.47 91.4864 122.351 91.649 122.264 91.8474C122.184 92.0457 122.137 92.248 122.121 92.4543L121.883 96.6431L120.443 96.7978V92.3591C120.443 91.9624 120.375 91.6649 120.241 91.4666C120.106 91.2603 119.884 91.1572 119.574 91.1572C119.304 91.1572 119.063 91.2444 118.848 91.419C118.634 91.5935 118.483 91.8196 118.396 92.0973V96.6431L116.944 96.7978L116.706 89.8363L118.396 90.0386V90.8002C118.531 90.5146 118.753 90.2924 119.063 90.1338C119.372 89.9751 119.749 89.8958 120.193 89.8958C120.613 89.8958 120.974 89.991 121.276 90.1814C121.585 90.3638 121.803 90.6137 121.93 90.9311C122.065 90.6137 122.291 90.3638 122.609 90.1814C122.926 89.991 123.319 89.8958 123.787 89.8958C124.176 89.8958 124.521 89.9791 124.822 90.1457C125.124 90.3123 125.362 90.5463 125.536 90.8478C125.711 91.1492 125.798 91.5062 125.798 91.9188V92.0735L125.56 96.6431L124.108 96.7978ZM132.37 96.7621C132.172 96.6034 132.017 96.4527 131.906 96.3099C131.803 96.1591 131.715 95.9806 131.644 95.7744C131.501 96.0203 131.299 96.2186 131.037 96.3694C130.775 96.5122 130.482 96.6153 130.157 96.6788C129.839 96.7422 129.514 96.774 129.181 96.774C128.506 96.774 127.999 96.6193 127.658 96.3099C127.316 96.0005 127.138 95.5681 127.122 95.0128V94.9652C127.122 94.3305 127.324 93.8307 127.729 93.4658C128.134 93.1008 128.697 92.839 129.419 92.6804C129.911 92.5693 130.323 92.4503 130.656 92.3234C130.997 92.1885 131.168 92.0378 131.168 91.8712C131.168 91.3396 130.752 91.0739 129.919 91.0739C129.498 91.0739 129.09 91.1572 128.693 91.3238C128.296 91.4824 127.971 91.6728 127.717 91.895L127.241 91.0382C127.519 90.6732 127.9 90.3916 128.383 90.1933C128.875 89.9949 129.431 89.8958 130.049 89.8958C130.97 89.8958 131.66 90.0663 132.12 90.4075C132.588 90.7407 132.822 91.2682 132.822 91.9902V94.6915C132.822 95.0009 132.882 95.3063 133.001 95.6078C133.12 95.9092 133.29 96.171 133.512 96.3932L132.37 96.7621ZM128.764 94.8462C128.772 95.0604 128.836 95.2428 128.955 95.3936C129.074 95.5443 129.252 95.6197 129.49 95.6197C129.839 95.6197 130.18 95.5205 130.514 95.3222C130.847 95.1238 131.077 94.8739 131.204 94.5725C131.243 94.4852 131.267 94.3781 131.275 94.2512C131.291 94.1163 131.299 93.9775 131.299 93.8347C131.299 93.6284 131.291 93.442 131.275 93.2754C131.259 93.1088 131.251 93.0255 131.251 93.0255C131.077 93.1603 130.851 93.2754 130.573 93.3706C130.303 93.4658 130.018 93.557 129.716 93.6443C129.423 93.7236 129.189 93.8545 129.014 94.037C128.848 94.2194 128.764 94.4614 128.764 94.7629V94.8462ZM136.589 88.0989C136.589 88.3765 136.49 88.6145 136.292 88.8129C136.093 89.0112 135.855 89.1104 135.578 89.1104C135.3 89.1104 135.062 89.0112 134.864 88.8129C134.665 88.6145 134.566 88.3765 134.566 88.0989C134.566 87.8212 134.665 87.5832 134.864 87.3849C135.062 87.1865 135.3 87.0874 135.578 87.0874C135.855 87.0874 136.093 87.1865 136.292 87.3849C136.49 87.5832 136.589 87.8212 136.589 88.0989ZM134.733 96.8097V89.8363L136.435 90.0386L136.197 96.6431L134.733 96.8097ZM138.184 96.7978V87.1231L139.91 87.3611L139.672 96.6431L138.184 96.7978ZM143.86 95.7506C143.86 96.0441 143.757 96.294 143.551 96.5003C143.345 96.6986 143.095 96.7978 142.801 96.7978C142.508 96.7978 142.258 96.6986 142.051 96.5003C141.845 96.294 141.742 96.0441 141.742 95.7506C141.742 95.457 141.845 95.2071 142.051 95.0009C142.258 94.7946 142.508 94.6915 142.801 94.6915C143.095 94.6915 143.345 94.7946 143.551 95.0009C143.757 95.2071 143.86 95.457 143.86 95.7506ZM151.318 95.6911C151.096 96.0084 150.759 96.2702 150.307 96.4765C149.855 96.6748 149.343 96.774 148.772 96.774C148.161 96.774 147.594 96.647 147.07 96.3932C146.546 96.1314 146.122 95.7466 145.797 95.2389C145.479 94.7311 145.321 94.0965 145.321 93.3349C145.321 92.6129 145.471 91.9981 145.773 91.4904C146.074 90.9747 146.483 90.582 146.999 90.3123C147.522 90.0346 148.113 89.8958 148.772 89.8958C149.303 89.8958 149.787 89.987 150.223 90.1695C150.668 90.344 151.013 90.586 151.259 90.8954L150.854 91.7998C150.656 91.5935 150.378 91.4229 150.021 91.2881C149.664 91.1532 149.323 91.0858 148.998 91.0858C148.625 91.0858 148.284 91.173 147.974 91.3476C147.665 91.5221 147.419 91.7799 147.237 92.1211C147.062 92.4543 146.975 92.8589 146.975 93.3349C146.975 94.0489 147.169 94.6002 147.558 94.989C147.947 95.3777 148.438 95.5721 149.033 95.5721C149.422 95.5721 149.783 95.5086 150.116 95.3817C150.458 95.2547 150.727 95.0802 150.926 94.8581L151.318 95.6911ZM155.65 96.774C154.96 96.774 154.361 96.6351 153.853 96.3575C153.353 96.0719 152.964 95.6712 152.687 95.1556C152.409 94.6399 152.27 94.037 152.27 93.3468C152.27 92.6486 152.409 92.0417 152.687 91.5261C152.964 91.0104 153.353 90.6098 153.853 90.3242C154.361 90.0386 154.96 89.8958 155.65 89.8958C156.348 89.8958 156.947 90.0386 157.447 90.3242C157.954 90.6098 158.343 91.0104 158.613 91.5261C158.883 92.0417 159.017 92.6486 159.017 93.3468C159.017 94.037 158.883 94.6399 158.613 95.1556C158.343 95.6712 157.954 96.0719 157.447 96.3575C156.947 96.6351 156.348 96.774 155.65 96.774ZM155.84 95.6792C156.34 95.6395 156.729 95.4293 157.006 95.0485C157.284 94.6597 157.423 94.1639 157.423 93.561C157.423 93.4975 157.423 93.438 157.423 93.3825C157.423 93.319 157.419 93.2555 157.411 93.1921C157.355 92.5098 157.165 91.9743 156.84 91.5856C156.522 91.1968 156.118 91.0025 155.626 91.0025C155.594 91.0025 155.566 91.0064 155.543 91.0144C155.519 91.0144 155.491 91.0144 155.459 91.0144C154.975 91.0461 154.587 91.2563 154.293 91.6451C154.008 92.0338 153.865 92.5336 153.865 93.1445C153.865 93.2 153.865 93.2595 153.865 93.323C153.865 93.3785 153.869 93.438 153.877 93.5015C153.932 94.1758 154.127 94.7113 154.46 95.108C154.793 95.4967 155.201 95.6911 155.685 95.6911C155.709 95.6911 155.733 95.6911 155.757 95.6911C155.789 95.6831 155.816 95.6792 155.84 95.6792ZM167.757 96.7978V92.3591C167.757 91.5578 167.436 91.1572 166.793 91.1572C166.595 91.1572 166.42 91.2246 166.269 91.3595C166.119 91.4864 166 91.649 165.912 91.8474C165.833 92.0457 165.785 92.248 165.77 92.4543L165.532 96.6431L164.092 96.7978V92.3591C164.092 91.9624 164.024 91.6649 163.889 91.4666C163.755 91.2603 163.532 91.1572 163.223 91.1572C162.953 91.1572 162.711 91.2444 162.497 91.419C162.283 91.5935 162.132 91.8196 162.045 92.0973V96.6431L160.593 96.7978L160.355 89.8363L162.045 90.0386V90.8002C162.18 90.5146 162.402 90.2924 162.711 90.1338C163.021 89.9751 163.398 89.8958 163.842 89.8958C164.262 89.8958 164.623 89.991 164.925 90.1814C165.234 90.3638 165.452 90.6137 165.579 90.9311C165.714 90.6137 165.94 90.3638 166.258 90.1814C166.575 89.991 166.968 89.8958 167.436 89.8958C167.824 89.8958 168.169 89.9791 168.471 90.1457C168.772 90.3123 169.01 90.5463 169.185 90.8478C169.359 91.1492 169.447 91.5062 169.447 91.9188V92.0735L169.209 96.6431L167.757 96.7978Z" fill="white"/>
</g>
<defs>
<filter id="filter0_d_28_7" x="-1" y="-1" width="204" height="204" filterUnits="userSpaceOnUse" color-interpolation-filters="sRGB">
<feFlood flood-opacity="0" result="BackgroundImageFix"/>
<feColorMatrix in="SourceAlpha" type="matrix" values="0 0 0 0 0 0 0 0 0 0 0 0 0 0 0 0 0 0 127 0" result="hardAlpha"/>
<feOffset dx="1" dy="1"/>
<feGaussianBlur stdDeviation="1"/>
<feComposite in2="hardAlpha" operator="out"/>
<feColorMatrix type="matrix" values="0 0 0 0 0 0 0 0 0 0 0 0 0 0 0 0 0 0 0.25 0"/>
<feBlend mode="normal" in2="BackgroundImageFix" result="effect1_dropShadow_28_7"/>
<feBlend mode="normal" in="SourceGraphic" in2="effect1_dropShadow_28_7" result="shape"/>
</filter>
</defs>
</svg>
