<svg width="1007" height="890" viewBox="0 0 1007 890" fill="none" xmlns="http://www.w3.org/2000/svg">
<g id="undraw_gdpr_-3-xfb 2">
<path id="Vector" d="M444.26 467.66C444.735 467.415 445.222 467.195 445.72 467C445.72 467 404.49 443.77 393.01 437.32C388.861 434.843 384.903 432.058 381.17 428.99C395.51 423.79 415.57 414.5 426.17 400.55C426.17 400.55 423.17 398.05 419.32 394.42L423.46 389.58C423.46 389.58 445.08 372.16 430.22 363.13C418.14 355.79 410.52 375.28 408.09 382.85L407.24 381.85C407.24 381.85 383.98 417.38 352.61 399.71C350.656 396.966 349.032 394.003 347.77 390.88C345.393 384.932 341.62 379.643 336.77 375.46L333.58 363.13L327.89 358.44C327.89 351.7 328.11 343.59 328.89 336.44C328.937 335.987 328.987 335.537 329.04 335.09C340.04 330.72 347.8 320.36 347.8 308.27C347.802 304.02 346.831 299.826 344.96 296.01C349.41 290.92 352.64 284.01 351.68 278.01C350.93 273.36 346.96 270.33 342.2 268.19C337.62 265.87 332.02 264.51 327.83 263.37C320.12 261.28 311.7 260.29 304.2 263C291.8 267.47 284.14 272.62 274.5 281.31C266.88 288.18 258.5 300.14 249.5 305.31C240.5 310.48 231.69 317.18 228.2 326.57C223.28 339.85 230.02 354.12 233.06 367.9C236.456 383.411 235.126 399.583 229.24 414.33C223.34 429.08 212.79 443.49 215.38 459.08C217.38 470.92 226.75 480.08 238.28 485.37C243.397 487.894 248.86 489.646 254.49 490.57C264.2 492.16 274.57 491.65 283.54 487.98C279.763 498.777 274.292 508.904 267.33 517.98C260.68 526.44 261.33 531.04 267.21 531.48C267.003 532.273 266.81 533.117 266.63 534.01C264.72 543.38 264.11 558.71 267.33 583.79C275.44 647.02 257.87 666.37 257.87 666.37C257.87 666.37 259.75 667.03 263.15 668.01C263.01 668.39 262.87 668.78 262.73 669.18C259.01 679.74 255.49 698.34 262.61 723.18C270.28 749.88 272.53 762.18 273.18 767.46V767.77C272.41 768.07 269.61 769.4 267.55 773.55C266.143 776.459 265.626 779.719 266.064 782.921C266.501 786.123 267.874 789.125 270.01 791.55V816.05H273.39V795.4C276.359 798.924 278.9 802.788 280.96 806.91C282.881 810.763 285.725 814.082 289.239 816.57C292.753 819.057 296.827 820.638 301.1 821.17C309.8 822.35 319.4 822.78 323.4 819.91C323.4 819.91 326.4 814.26 312.05 807.41L311.93 807.23C307.21 800.35 299.93 788.41 298.83 779.04C298.224 773.291 296.983 767.626 295.13 762.15V762.15C293.694 758.034 292.806 753.748 292.49 749.4C291.49 736.11 289.75 706.98 292.33 700.55C294.07 696.22 295.1 685.35 295.68 675.85C295.68 675.42 295.73 674.99 295.76 674.57C310.769 676.491 325.954 676.602 340.99 674.9V681.2C340.99 681.2 334.91 700.56 347.07 728.3C347.07 728.3 363.56 753.49 367.29 768.37C367.397 768.797 367.493 769.213 367.58 769.62C365.37 769.88 355.63 772.17 359.24 792.81L358.56 819.91H361.94L362.62 796.04C362.62 796.04 366 790.23 377.49 802.49C379.23 804.35 380.803 806.073 382.21 807.66C386.329 812.235 391.405 815.846 397.077 818.238C402.749 820.63 408.879 821.744 415.03 821.5C422.41 821.24 429.46 820.5 432.22 818.62C432.22 818.62 438.98 813.46 422.08 810.88L414.3 808.57H414.01L412.9 807.33C407 800.65 398.43 789.33 396.24 777.83C395.463 773.863 394.235 769.998 392.58 766.31L386.26 752.09L371.39 676.03C371.39 676.03 372.17 672.69 372.93 668.6C373.01 668.15 373.1 667.68 373.18 667.22L375.44 666.35C375.44 666.35 388.96 656.67 368.68 597.96C368.68 597.96 360.8 565.26 356.81 539.21L366.65 537.32C366.65 537.32 365.13 514.32 362.1 498.32C364.1 490.82 365.2 484.32 363.95 481.14C362.918 478.246 362.338 475.21 362.23 472.14C361.836 465.203 361.092 458.291 360 451.43L372.73 460.43L436.93 491.43C434.47 486.37 434.08 482.22 434.79 478.87C439.47 485.56 451.89 500.49 462.61 488.2C473.55 475.77 452.65 469.57 444.26 467.66Z" fill="url(#paint0_linear_37_69)"/>
<path id="Vector_2" d="M435.12 467.87C435.12 467.87 468.21 473.6 455.48 488.87C442.75 504.14 427.48 476.78 427.48 476.78L435.12 467.87Z" fill="#F8BDC5"/>
<path id="Vector_3" d="M325.03 369.24C325.03 369.24 341.57 376.88 347.3 392.78C353.03 408.68 379.12 432.23 389.93 438.6C400.74 444.97 439.56 467.87 439.56 467.87C439.56 467.87 423.02 474.23 431.29 492.05L370.84 461.51L343.49 441.15L325.03 369.24Z" fill="#575988"/>
<path id="Vector_4" opacity="0.1" d="M325.03 369.24C325.03 369.24 341.57 376.88 347.3 392.78C353.03 408.68 379.12 432.23 389.93 438.6C400.74 444.97 439.56 467.87 439.56 467.87C439.56 467.87 423.02 474.23 431.29 492.05L370.84 461.51L343.49 441.15L325.03 369.24Z" fill="black"/>
<g id="flag">
<path id="Vector_5" d="M581.74 2.47002C581.74 2.47002 508.86 -24.15 431.36 97.68C431.36 97.68 398.78 165.68 325.98 165.41L318.18 147.63L303.49 153.4L500.49 603.4L515.35 598.63L422.57 385.49C453.35 383.13 521.94 360.97 584.5 222.84C584.5 222.84 640.7 117.94 723 130.34L581.74 2.47002Z" fill="url(#paint1_linear_37_69)"/>
<path id="Vector_6" d="M314 167.37L409.49 383.31C409.49 383.31 502.09 405.91 584.09 224.87C584.09 224.87 639.09 122.26 719.57 134.39L581.43 9.30002C581.43 9.30002 510.13 -16.7 434.33 102.44C434.32 102.44 397.34 179.69 314 167.37Z" fill="#FFD700"/>
</g>
<path id="Vector_7" d="M540.17 177.71L518.17 153.24C517.834 152.866 517.427 152.561 516.973 152.344C516.52 152.127 516.027 152.001 515.525 151.974C515.023 151.947 514.52 152.02 514.045 152.187C513.571 152.354 513.134 152.614 512.76 152.95L510.99 154.57L501.79 144.32C500.934 143.367 499.9 142.592 498.745 142.039C497.59 141.486 496.337 141.167 495.058 141.098C493.78 141.029 492.5 141.213 491.292 141.639C490.085 142.065 488.973 142.724 488.02 143.58L476.02 154.35C475.067 155.206 474.292 156.24 473.739 157.395C473.186 158.55 472.866 159.803 472.798 161.082C472.729 162.36 472.913 163.64 473.339 164.848C473.765 166.055 474.424 167.167 475.28 168.12L484.48 178.37L482.69 179.98C482.316 180.316 482.011 180.723 481.794 181.177C481.577 181.63 481.451 182.123 481.424 182.625C481.397 183.127 481.47 183.63 481.637 184.105C481.804 184.579 482.064 185.016 482.4 185.39L504.4 209.86C504.736 210.234 505.143 210.539 505.597 210.756C506.05 210.973 506.543 211.099 507.045 211.126C507.547 211.153 508.05 211.08 508.525 210.913C508.999 210.746 509.436 210.486 509.81 210.15L539.89 183.15C540.268 182.813 540.576 182.404 540.795 181.947C541.014 181.49 541.14 180.994 541.166 180.488C541.192 179.983 541.117 179.476 540.946 178.999C540.775 178.523 540.511 178.084 540.17 177.71V177.71ZM479.56 167.57C478.704 166.617 478.045 165.505 477.619 164.298C477.193 163.09 477.009 161.81 477.078 160.532C477.146 159.253 477.466 158 478.019 156.845C478.572 155.69 479.347 154.656 480.3 153.8L487.05 147.74C488.003 146.884 489.115 146.225 490.322 145.799C491.53 145.373 492.81 145.189 494.088 145.258C495.367 145.327 496.62 145.646 497.775 146.199C498.93 146.752 499.965 147.527 500.82 148.48L508.37 156.89L487.11 175.97L479.56 167.57ZM513.64 181.43L517.2 185.43C517.388 185.639 517.534 185.884 517.628 186.15C517.722 186.415 517.762 186.697 517.748 186.978C517.733 187.26 517.663 187.535 517.541 187.789C517.42 188.044 517.249 188.272 517.04 188.46C516.831 188.648 516.586 188.794 516.32 188.888C516.055 188.982 515.773 189.022 515.492 189.008C515.211 188.993 514.935 188.923 514.681 188.801C514.426 188.68 514.198 188.509 514.01 188.3L510.25 184.11C509.095 184.389 507.88 184.264 506.806 183.756C505.732 183.248 504.865 182.388 504.348 181.318C503.831 180.249 503.696 179.034 503.965 177.877C504.234 176.72 504.891 175.69 505.827 174.959C506.763 174.227 507.921 173.838 509.109 173.856C510.297 173.874 511.442 174.298 512.356 175.058C513.269 175.818 513.894 176.868 514.128 178.032C514.362 179.197 514.189 180.407 513.64 181.46V181.43Z" fill="url(#paint2_linear_37_69)"/>
<g id="flagDesign">
<path id="Vector_8" d="M435.62 142.44L440.26 155.38L431.33 164.25L441.74 162.97L445.63 174.81L448.71 161.37L458.4 160.59L449.81 153.62L451.8 140.94L444.21 149.42L435.62 142.44Z" fill="white"/>
<path id="Vector_9" d="M455.1 103.68L459.23 115.89L451.42 125.6L460.71 123.47L465.69 134.56L466.93 120.79L477.09 119.14L468.28 113.4L470.16 101.33L463.91 109.42L455.1 103.68Z" fill="white"/>
<path id="Vector_10" d="M484.53 80.09L489 90.45L481.33 101.14L490.49 98.04L494.96 108.4L497.93 95.58L508.46 93.68L498.66 88.07L502 75L493.82 84.96L484.53 80.09Z" fill="white"/>
<path id="Vector_11" d="M517.42 79.4L521.9 89.76L512.6 98.89L523.24 96.37L527.35 106.98L530.69 93.91L541.47 92.38L532.68 88.23L535.76 74.79L526.72 84.28L517.42 79.4Z" fill="white"/>
<path id="Vector_12" d="M544.77 98.7L549.24 109.06L539.95 118.19L550.59 115.67L554.7 126.28L558.03 113.21L568.81 111.68L560.02 107.53L563.11 94.09L554.06 103.58L544.77 98.7Z" fill="white"/>
<path id="Vector_13" d="M559.4 128.41L563.87 138.77L554.58 147.9L565.21 145.38L569.33 155.99L572.66 142.92L583.44 141.39L574.65 137.24L577.74 123.8L568.69 133.29L559.4 128.41Z" fill="white"/>
<path id="Vector_14" d="M552.35 175.81L557.33 186.9L548.48 200.56L559.2 195.83L563.79 205.57L566.01 191.66L577.35 187.04L567.33 182.67L569.43 169.38L562.6 178.95L552.35 175.81Z" fill="white"/>
<path id="Vector_15" d="M536.29 220.29L540.18 232.13L532.42 245.03L542.78 240.56L547.14 251.54L549.22 236.64L558.96 232.06L550.17 227.91L552.5 213.38L545.19 223.82L536.29 220.29Z" fill="white"/>
<path id="Vector_16" d="M505.57 247.46L509.59 260.28L500.21 271.62L509.5 269.49L513.62 280.11L516.7 266.67L526.33 262.7L518.75 257.18L520.83 242.29L513.77 253.09L505.57 247.46Z" fill="white"/>
<path id="Vector_17" d="M473.85 252.18L477.51 265.25L467.7 273.65L477.64 273.23L480.52 283.62L484.36 271.27L495.25 269.12L487.28 262.26L489.16 250.19L482.05 257.81L473.85 252.18Z" fill="white"/>
<path id="Vector_18" d="M445.07 228.48L448.85 240.94L436.83 249.25L449.49 249.65L451.92 262.5L456.71 248.42L468.61 247.72L459.66 241L463.44 225.46L452.8 234.98L445.07 228.48Z" fill="white"/>
<path id="Vector_19" d="M433.78 185.7L437.56 198.16L425.54 206.47L438.2 206.86L440.63 219.72L445.42 205.63L457.32 204.94L448.36 198.22L452.15 182.68L441.51 192.19L433.78 185.7Z" fill="white"/>
<path id="Vector_20" d="M488.8 145.02L477.41 155.25C476.505 156.063 475.769 157.046 475.244 158.143C474.719 159.24 474.415 160.43 474.35 161.645C474.285 162.86 474.46 164.075 474.865 165.222C475.27 166.369 475.897 167.425 476.71 168.33L486.36 179.08L488.85 176.84L480.77 167.84C479.957 166.935 479.33 165.879 478.925 164.732C478.52 163.585 478.345 162.37 478.41 161.155C478.475 159.94 478.779 158.75 479.304 157.653C479.829 156.556 480.565 155.573 481.47 154.76L487.88 149.01C488.785 148.197 489.841 147.57 490.988 147.165C492.135 146.76 493.35 146.585 494.565 146.65C495.78 146.715 496.97 147.019 498.067 147.544C499.164 148.069 500.147 148.805 500.96 149.71L509.04 158.71L511.53 156.47L501.88 145.72C501.067 144.815 500.084 144.079 498.987 143.554C497.89 143.029 496.7 142.725 495.485 142.66C494.27 142.595 493.055 142.77 491.908 143.175C490.761 143.58 489.705 144.207 488.8 145.02V145.02Z" fill="white"/>
<path id="Vector_21" d="M512.31 153.94L483.74 179.57C483.021 180.215 482.588 181.118 482.536 182.082C482.483 183.046 482.816 183.991 483.46 184.71L504.33 207.95C504.975 208.669 505.878 209.102 506.842 209.155C507.806 209.207 508.751 208.874 509.47 208.23L538.05 182.57C538.769 181.926 539.202 181.022 539.255 180.058C539.307 179.094 538.975 178.149 538.33 177.43L517.49 154.22C517.17 153.858 516.782 153.564 516.347 153.353C515.913 153.143 515.441 153.021 514.959 152.995C514.477 152.969 513.994 153.039 513.54 153.202C513.085 153.364 512.667 153.615 512.31 153.94V153.94ZM513.12 180.99L516.5 184.76C516.679 184.957 516.817 185.187 516.906 185.438C516.996 185.688 517.035 185.953 517.022 186.219C517.009 186.485 516.944 186.745 516.831 186.985C516.717 187.226 516.557 187.441 516.36 187.62C516.163 187.799 515.933 187.937 515.683 188.026C515.432 188.116 515.167 188.155 514.901 188.142C514.636 188.129 514.375 188.064 514.135 187.951C513.894 187.837 513.679 187.677 513.5 187.48L509.93 183.48C508.833 183.744 507.678 183.624 506.658 183.141C505.638 182.657 504.815 181.839 504.324 180.822C503.834 179.805 503.707 178.651 503.964 177.552C504.221 176.453 504.847 175.475 505.737 174.781C506.628 174.087 507.729 173.719 508.857 173.738C509.986 173.757 511.074 174.162 511.941 174.885C512.807 175.609 513.4 176.607 513.62 177.714C513.84 178.821 513.674 179.97 513.15 180.97L513.12 180.99Z" fill="white"/>
</g>
<path id="Vector_22" d="M309.21 156.95L501.22 595.5L515.75 590.83L323.61 151.3L309.21 156.95Z" fill="#F0F5FA"/>
<path id="Vector_23" d="M403.3 387.69C403.3 387.69 410.94 356.51 424.94 365.42C438.94 374.33 418.58 391.51 418.58 391.51L412.85 398.51L403.3 387.69Z" fill="#F8BDC5"/>
<path id="Vector_24" d="M326.69 359.16L333.94 365.42L337 377.84L332.03 374.96V365.42L326.68 364.78L326.69 359.16Z" fill="#DEDFF7"/>
<path id="Vector_25" opacity="0.1" d="M326.69 359.16L333.94 365.42L337 377.84L332.03 374.96V365.42L326.68 364.78L326.69 359.16Z" fill="black"/>
<path id="Vector_26" d="M348.26 485.05L352.49 539.78L365.14 537.23C365.14 537.23 362.33 492.69 356.71 485.05C351.09 477.41 348.26 485.05 348.26 485.05Z" fill="#575988"/>
<path id="Vector_27" opacity="0.1" d="M348.26 485.05L352.49 539.78L365.14 537.23C365.14 537.23 362.33 492.69 356.71 485.05C351.09 477.41 348.26 485.05 348.26 485.05Z" fill="black"/>
<path id="Vector_28" d="M317.39 808.95L297.03 812.13L285.58 803.22L277.31 777.13V767.57C277.326 766.426 277.249 765.282 277.08 764.15C276.47 758.98 274.35 746.82 267.08 720.48C260.37 696.01 263.69 677.67 267.19 667.26C268.261 663.849 269.717 660.571 271.53 657.49H298.89C298.89 657.49 298.74 665.08 298.23 673.85C297.68 683.22 296.72 693.95 295.07 698.22C292.63 704.56 294.3 733.29 295.22 746.4C295.519 750.675 296.356 754.895 297.71 758.96V758.96C299.459 764.374 300.629 769.959 301.2 775.62C302.2 784.87 309.09 796.62 313.53 803.43C315.79 806.81 317.39 808.95 317.39 808.95Z" fill="#F8BDC5"/>
<path id="Vector_29" d="M414.12 809.57L405.21 812.12L388.03 805.12L366.39 782.22V769.5C366.294 768.022 366.063 766.556 365.7 765.12C362.19 750.44 346.7 725.6 346.7 725.6C335.25 698.24 340.97 679.15 340.97 679.15V659.41C340.97 659.41 370.88 649.23 372.15 653.05C372.86 655.19 371.97 661.56 371.06 666.72C370.34 670.72 369.61 674.04 369.61 674.04L383.61 749.13L389.56 763.13C391.121 766.779 392.274 770.588 393 774.49C395.07 785.8 403.14 796.99 408.69 803.58C411.79 807.33 414.12 809.57 414.12 809.57Z" fill="#F8BDC5"/>
<path id="Vector_30" opacity="0.1" d="M317.39 808.95L297.03 812.13L285.58 803.22L277.31 777.13V767.57C277.326 766.426 277.25 765.282 277.08 764.15C277.356 763.988 277.647 763.854 277.95 763.75C277.95 763.75 280.5 773.3 279.22 777.75C278.22 781.3 286.89 794.56 290.46 799.75C292.224 802.419 294.791 804.457 297.79 805.57C304.74 808.03 311.41 804.71 313.59 803.43C315.79 806.81 317.39 808.95 317.39 808.95Z" fill="black"/>
<path id="Vector_31" d="M313.7 803.57C313.7 803.57 305.64 809.19 297.15 806.18C294.156 805.078 291.589 803.054 289.82 800.4C286.25 795.17 277.56 781.91 278.58 778.4C279.85 773.95 277.31 764.4 277.31 764.4C277.31 764.4 274.08 765.4 271.81 770.18C270.479 773.06 269.991 776.259 270.401 779.405C270.812 782.552 272.105 785.517 274.13 787.96V812.12H277.31V791.78C280.118 795.274 282.511 799.083 284.44 803.13C286.177 806.877 288.827 810.127 292.146 812.584C295.466 815.04 299.349 816.624 303.44 817.19C311.63 818.35 320.67 818.78 324.44 815.95C324.39 815.95 327.19 810.38 313.7 803.57Z" fill="#575988"/>
<path id="Vector_32" opacity="0.1" d="M414.12 809.57L405.21 812.12L388.03 805.12L366.39 782.22V769.5C366.294 768.022 366.063 766.556 365.7 765.12C365.928 765.08 366.159 765.056 366.39 765.05C366.39 768.36 372.03 776.24 375.99 781.35C378.054 784.034 379.979 786.821 381.76 789.7C390 802.98 404.27 803.7 408.66 803.62C411.79 807.33 414.12 809.57 414.12 809.57Z" fill="black"/>
<path id="Vector_33" d="M366.39 766.31C366.39 766.31 354.3 766.31 358.12 789.22L357.49 815.95H360.67L361.31 792.41C361.31 792.41 364.49 786.68 375.31 798.77C376.95 800.603 378.433 802.303 379.76 803.87C383.542 808.337 388.29 811.887 393.644 814.252C398.999 816.616 404.82 817.734 410.67 817.52C417.61 817.26 424.26 816.52 426.86 814.68C426.86 814.68 433.22 809.59 417.31 807.04L409.99 804.81C409.99 804.81 391.6 806.81 381.77 790.96C379.989 788.066 378.06 785.266 375.99 782.57C372.04 777.5 366.39 769.62 366.39 766.31Z" fill="#575988"/>
<path id="Vector_34" opacity="0.1" d="M271.58 657.5H298.94C298.94 657.5 298.79 665.09 298.28 673.86C287.784 672.516 277.415 670.312 267.28 667.27C268.339 663.861 269.781 660.583 271.58 657.5V657.5Z" fill="black"/>
<path id="Vector_35" opacity="0.1" d="M371.02 666.72C361.334 670.436 351.228 672.948 340.93 674.2V659.41C340.93 659.41 370.84 649.23 372.11 653.05C372.83 655.19 371.94 661.57 371.02 666.72Z" fill="black"/>
<path id="Vector_36" d="M373.39 664.5C321.21 686.14 262.67 664.5 262.67 664.5C262.67 664.5 279.21 645.41 271.58 583.05C268.58 558.32 269.12 543.2 270.92 533.95C273.65 519.88 279.21 519.42 279.21 519.42L354.3 510.51C353.63 513.06 353.59 517.36 353.96 522.71C355.75 548.05 367.02 597.05 367.02 597.05C386.12 654.96 373.39 664.5 373.39 664.5Z" fill="#575988"/>
<path id="Vector_37" d="M333.3 323.42C331.36 326.33 330.19 332.27 329.49 339.11C327.92 354.69 328.84 374.96 328.84 374.96C328.84 374.96 290.02 395.96 298.93 368.6C304.085 351.697 302.493 333.455 294.49 317.7C294.49 317.7 339.67 313.88 333.3 323.42Z" fill="#F8BDC5"/>
<path id="Vector_38" opacity="0.1" d="M333.3 323.42C331.36 326.33 330.19 332.27 329.49 339.11C324.708 341.059 319.489 341.679 314.384 340.904C309.279 340.13 304.478 337.99 300.49 334.71C299.288 328.793 297.269 323.071 294.49 317.71C294.49 317.71 339.67 313.88 333.3 323.42Z" fill="black"/>
<path id="Vector_39" d="M318.66 339.97C334.477 339.97 347.3 327.147 347.3 311.33C347.3 295.512 334.477 282.69 318.66 282.69C302.843 282.69 290.02 295.512 290.02 311.33C290.02 327.147 302.843 339.97 318.66 339.97Z" fill="#F8BDC5"/>
<path id="Vector_40" opacity="0.1" d="M353.96 522.71C350.47 532.29 347.3 539.78 347.3 539.78C347.3 539.78 317.39 514.32 294.49 526.42C283.68 532.12 275.43 534.57 270.93 533.95C273.66 519.88 279.22 519.42 279.22 519.42L354.31 510.51C353.63 513.06 353.59 517.35 353.96 522.71Z" fill="black"/>
<path id="Vector_41" d="M347.3 537.23C347.3 537.23 317.39 511.78 294.49 523.87C271.59 535.96 260.13 533.42 271.58 518.14C283.03 502.86 298.31 470.41 286.85 446.23C275.39 422.05 270.94 383.87 279.85 373.69C288.76 363.51 297.03 352.05 297.03 349.51C297.03 349.51 329.48 373.05 335.85 382.6C337.68 385.34 340.67 392.34 343.99 400.93C345.78 405.57 347.68 410.67 349.55 415.81C352.474 423.873 354.846 432.125 356.65 440.51C358.936 451.214 360.377 462.08 360.96 473.01C361.062 476.027 361.608 479.012 362.58 481.87C366.39 492.05 347.3 537.23 347.3 537.23Z" fill="#575988"/>
<path id="Vector_42" d="M333.94 366.06L333.19 379.34L296.45 351.34C296.45 351.34 295.75 345.72 305.3 351.44C314.85 357.16 333.94 366.06 333.94 366.06Z" fill="#DEDFF7"/>
<path id="Vector_43" opacity="0.1" d="M356.64 440.51C323.03 441.13 284.94 403.6 284.94 403.6C271.58 367.97 316.76 375.6 316.76 375.6C316.76 375.6 320.48 385.18 343.99 400.93C345.78 405.57 347.68 410.67 349.55 415.81C352.47 423.873 354.839 432.126 356.64 440.51V440.51Z" fill="black"/>
<path id="Vector_44" d="M284.94 399.15C284.94 399.15 328.21 441.78 363.21 435.42C363.21 435.42 404.57 425.24 421.12 402.33C421.12 402.33 410.3 392.78 403.3 383.88C403.3 383.88 381.03 419.51 351.12 401.06C321.21 382.61 316.76 371.15 316.76 371.15C316.76 371.15 271.58 363.51 284.94 399.15Z" fill="#575988"/>
<path id="Vector_45" opacity="0.1" d="M329.77 267.7C322.51 265.64 314.58 264.7 307.52 267.33C295.84 271.74 288.63 276.82 279.52 285.39C272.34 292.16 264.44 303.96 255.99 309.04C247.54 314.12 239.28 320.74 235.99 330.04C231.36 343.14 237.7 357.21 240.57 370.8C243.767 386.094 242.518 401.984 236.97 416.59C231.41 431.13 221.48 445.35 223.97 460.73C226.58 477.18 243.09 488.34 259.5 491.15C270.68 493.07 282.78 491.89 292.28 485.71C294.958 484.09 297.219 481.863 298.88 479.21C302.93 472.21 300.27 463.4 297.77 455.7C292.65 439.93 288.61 423.83 284.56 407.75C282.2 398.36 279.86 388.29 283.2 379.2C286.46 370.33 294.59 364.12 303.09 359.98C306.42 358.36 309.97 356.9 312.47 354.18C313.845 352.628 314.908 350.825 315.6 348.87C319.88 337.46 315.08 322.74 323.34 313.77C327.54 309.21 334.01 307.63 339.19 304.22C345.73 299.91 352.19 289.73 350.96 281.47C349.62 272.77 337.28 269.83 329.77 267.7Z" fill="black"/>
<path id="Vector_46" d="M328.49 267.06C321.23 265 313.3 264.06 306.24 266.69C294.56 271.1 287.35 276.18 278.24 284.75C271.06 291.52 263.16 303.32 254.71 308.4C246.26 313.48 238 320.1 234.71 329.4C230.08 342.5 236.42 356.57 239.29 370.16C242.487 385.454 241.238 401.344 235.69 415.95C230.13 430.49 220.2 444.71 222.69 460.09C225.3 476.54 241.81 487.7 258.22 490.51C269.4 492.43 281.5 491.25 291 485.07C293.678 483.45 295.939 481.223 297.6 478.57C301.65 471.57 298.99 462.76 296.49 455.06C291.37 439.29 287.33 423.19 283.28 407.11C280.92 397.72 278.58 387.65 281.92 378.56C285.18 369.69 293.31 363.48 301.81 359.34C305.14 357.72 308.69 356.26 311.19 353.54C312.565 351.988 313.628 350.185 314.32 348.23C318.6 336.82 313.8 322.1 322.06 313.13C326.26 308.57 332.73 306.99 337.91 303.58C344.45 299.27 350.91 289.09 349.68 280.83C348.35 272.14 336.01 269.19 328.49 267.06Z" fill="#EB6475"/>
</g>
<defs>
<linearGradient id="paint0_linear_37_69" x1="340.35" y1="822.07" x2="340.35" y2="261.38" gradientUnits="userSpaceOnUse">
<stop stop-color="#808080" stop-opacity="0.25"/>
<stop offset="0.54" stop-color="#808080" stop-opacity="0.12"/>
<stop offset="1" stop-color="#808080" stop-opacity="0.1"/>
</linearGradient>
<linearGradient id="paint1_linear_37_69" x1="406104" y1="49184.9" x2="239043" y2="-192352" gradientUnits="userSpaceOnUse">
<stop stop-color="#808080" stop-opacity="0.25"/>
<stop offset="0.54" stop-color="#808080" stop-opacity="0.12"/>
<stop offset="1" stop-color="#808080" stop-opacity="0.1"/>
</linearGradient>
<linearGradient id="paint2_linear_37_69" x1="47748.3" y1="-21650.1" x2="45069.1" y2="-25523.8" gradientUnits="userSpaceOnUse">
<stop stop-color="#808080" stop-opacity="0.25"/>
<stop offset="0.54" stop-color="#808080" stop-opacity="0.12"/>
<stop offset="1" stop-color="#808080" stop-opacity="0.1"/>
</linearGradient>
</defs>
</svg>
